# xmcd
#
# Track frame offsets:
#       150
#       14365
#       32958
#       50727
#       62993
#       82208
#       101266
#       116608
#       135171
#       152151
#       170067
#       186784
#       201873
#       217803
#       235081
#       248411
#       268600
#       282806
#       297754
#       314216
#
# Disc length: 4465 seconds
#
# Revision: 1
# Processed by: cddbd v1.5.2PL0 Copyright (c) Steve Scherf et al.
# Submitted via: WaveLab 4.01
#
DISCID=24116f14
DTITLE=Promo Only Canada - Mainstream Radio December 2006
DYEAR=2006
DGENRE=Top 40
TTITLE0=Gwen Stefani - Wind It Up
TTITLE1=Scissor Sisters - I Don't Feel Like Dancin'
TTITLE2=Belly - Pressure
TTITLE3=Ok Go - Here It Goes Again
TTITLE4=Goo Goo Dolls - Let Love In
TTITLE5=Nickelback - Rockstar
TTITLE6=Eva Avila - Meant To Fly
TTITLE7=Akon ft. Snoop Dogg - I Wanna Love You
TTITLE8=Beyonce - Irreplaceable
TTITLE9=The Tragically Hip - In View
TTITLE10=Jay-Z - Show Me What You Got (Edit Version)
TTITLE11=U2 and Green Day - The Saints Are Coming
TTITLE12=Pink - U and UR Hand
TTITLE13=P Diddy - Come To Me
TTITLE14=Daniel Powter - Love You Lately
TTITLE15=Barenaked Ladies - Easy
TTITLE16=Reel Vinyl - The World Will Notice
TTITLE17=KT Tunstall - Suddenly I See
TTITLE18=Pussycat Dolls - I Don't Need A Man
TTITLE19=My Chemical Romance - Welcome To The Black Parade
EXTD=
EXTT0=
EXTT1=
EXTT2=
EXTT3=
EXTT4=
EXTT5=
EXTT6=
EXTT7=
EXTT8=
EXTT9=
EXTT10=
EXTT11=
EXTT12=
EXTT13=
EXTT14=
EXTT15=
EXTT16=
EXTT17=
EXTT18=
EXTT19=
PLAYORDER=
